<?xml version="1.0" encoding="iso-8859-1"?>
<!-- Generator: Adobe Illustrator 19.0.0, SVG Export Plug-In . SVG Version: 6.00 Build 0)  -->
<svg version="1.1" id="Layer_1" xmlns="http://www.w3.org/2000/svg" xmlns:xlink="http://www.w3.org/1999/xlink" x="0px" y="0px"
	 viewBox="0 0 512 512" style="enable-background:new 0 0 512 512;" xml:space="preserve">
<polygon style="fill:#FEE187;" points="180.983,232.44 331.017,321.456 180.983,410.47 "/>
<g>
	<path style="fill:#FFC61B;" d="M180.982,425.938c-2.64,0-5.281-0.676-7.654-2.028c-4.831-2.75-7.814-7.883-7.814-13.44V232.44
		c0-5.559,2.984-10.69,7.814-13.44c4.828-2.752,10.764-2.701,15.547,0.138l150.035,89.016c4.696,2.787,7.575,7.842,7.575,13.304
		s-2.879,10.517-7.575,13.304l-150.035,89.016C186.444,425.216,183.714,425.938,180.982,425.938z M196.45,259.602v123.706
		l104.252-61.852L196.45,259.602z"/>
	<path style="fill:#FFC61B;" d="M420.59,512H91.411c-15.928,0-30.802-6.302-41.882-17.743c-11.081-11.442-16.9-26.511-16.388-42.431
		l12.715-395.4C46.873,24.785,72.468,0,104.125,0h191.576c8.542,0,15.468,6.927,15.468,15.468s-6.927,15.468-15.468,15.468H104.125
		c-14.859,0-26.873,11.634-27.351,26.485L64.06,452.82c-0.24,7.471,2.492,14.545,7.692,19.915c5.2,5.371,12.181,8.328,19.657,8.328
		h329.179c7.476,0,14.458-2.957,19.657-8.328c5.2-5.371,7.932-12.443,7.692-19.915l-12.715-395.4
		c-0.476-14.851-12.491-26.485-27.348-26.485h-17.303c-8.542,0-15.468-6.927-15.468-15.468S382.031,0,390.572,0h17.303
		c31.657,0,57.252,24.785,58.27,56.426l12.715,395.4c0.512,15.918-5.309,30.987-16.388,42.431
		C451.391,505.698,436.517,512,420.59,512z"/>
	<path style="fill:#FFC61B;" d="M255.999,187.2c-60.556,0-109.824-49.268-109.824-109.824c0-8.542,6.925-15.468,15.468-15.468
		s15.468,6.927,15.468,15.468c0,43.498,35.388,78.888,78.887,78.888c43.498,0,78.888-35.39,78.888-78.888
		c0-8.542,6.927-15.468,15.468-15.468s15.468,6.927,15.468,15.468C365.823,137.934,316.557,187.2,255.999,187.2z"/>
</g>
<g>
</g>
<g>
</g>
<g>
</g>
<g>
</g>
<g>
</g>
<g>
</g>
<g>
</g>
<g>
</g>
<g>
</g>
<g>
</g>
<g>
</g>
<g>
</g>
<g>
</g>
<g>
</g>
<g>
</g>
</svg>
